<?xml version="1.0" encoding="UTF-8" standalone="no"?>
<!-- Generator: Adobe Illustrator 13.0.2, SVG Export Plug-In . SVG Version: 6.00 Build 14948)  -->
<svg
   xmlns:dc="http://purl.org/dc/elements/1.1/"
   xmlns:cc="http://creativecommons.org/ns#"
   xmlns:rdf="http://www.w3.org/1999/02/22-rdf-syntax-ns#"
   xmlns:svg="http://www.w3.org/2000/svg"
   xmlns="http://www.w3.org/2000/svg"
   xmlns:sodipodi="http://sodipodi.sourceforge.net/DTD/sodipodi-0.dtd"
   xmlns:inkscape="http://www.inkscape.org/namespaces/inkscape"
   version="1.1"
   id="Layer_1"
   x="0px"
   y="0px"
   width="204.127px"
   height="203.875px"
   viewBox="0 0 204.127 203.875"
   enable-background="new 0 0 204.127 203.875"
   xml:space="preserve"
   sodipodi:version="0.32"
   inkscape:version="0.46"
   sodipodi:docname="f.svg"
   inkscape:output_extension="org.inkscape.output.svg.inkscape"><metadata
   id="metadata40"><rdf:RDF><cc:Work
       rdf:about=""><dc:format>image/svg+xml</dc:format><dc:type
         rdf:resource="http://purl.org/dc/dcmitype/StillImage" /></cc:Work></rdf:RDF></metadata><defs
   id="defs38"><inkscape:perspective
     sodipodi:type="inkscape:persp3d"
     inkscape:vp_x="0 : 101.9375 : 1"
     inkscape:vp_y="0 : 1000 : 0"
     inkscape:vp_z="204.127 : 101.9375 : 1"
     inkscape:persp3d-origin="102.0635 : 67.958333 : 1"
     id="perspective42" /></defs><sodipodi:namedview
   inkscape:window-height="700"
   inkscape:window-width="687"
   inkscape:pageshadow="2"
   inkscape:pageopacity="0.0"
   guidetolerance="10.0"
   gridtolerance="10.0"
   objecttolerance="10.0"
   borderopacity="1.0"
   bordercolor="#666666"
   pagecolor="#ffffff"
   id="base"
   showgrid="false"
   inkscape:zoom="2.4230533"
   inkscape:cx="102.0635"
   inkscape:cy="101.9375"
   inkscape:window-x="0"
   inkscape:window-y="49"
   inkscape:current-layer="Layer_1" />
<rect
   fill="#D81921"
   width="204.127"
   height="202.875"
   id="rect3"
   style="fill:#d71e28;fill-opacity:1" />
<path
   fill="#FFFFFF"
   d="M151.563,203.875V134.57h-11.135v-11.136h11.135v-3.821c0-11.303,2.66-21.606,9.475-28.088  c5.484-5.319,12.798-7.479,19.445-7.479c5.317,0,9.64,1.163,12.466,2.327l-1.828,11.3c-2.328-0.996-5.152-1.828-9.474-1.828  c-12.301,0-15.623,10.972-15.623,23.269v4.321h19.443v11.136h-19.279v69.307h-14.625V203.875z"
   id="path5" />
<g
   enable-background="new    "
   id="g7">
	<path
   fill="#FFFFFF"
   d="M34.438,189.425l0.704,2.707c0.154,0.594,0.297,1.144,0.396,1.694h0.033   c0.121-0.539,0.297-1.111,0.473-1.694l0.869-2.707h0.814l0.825,2.663c0.198,0.638,0.352,1.199,0.473,1.738h0.033   c0.088-0.539,0.231-1.101,0.407-1.728l0.759-2.674h0.957l-1.716,5.325h-0.88l-0.814-2.541c-0.187-0.595-0.341-1.122-0.473-1.75   h-0.022c-0.132,0.639-0.297,1.188-0.484,1.761l-0.858,2.53h-0.88l-1.606-5.325H34.438z"
   id="path9" />
	<path
   fill="#FFFFFF"
   d="M44.657,189.425l0.704,2.707c0.154,0.594,0.297,1.144,0.396,1.694h0.033   c0.121-0.539,0.297-1.111,0.473-1.694l0.869-2.707h0.814l0.825,2.663c0.198,0.638,0.352,1.199,0.473,1.738h0.033   c0.088-0.539,0.231-1.101,0.407-1.728l0.759-2.674h0.957l-1.716,5.325h-0.88l-0.814-2.541c-0.187-0.595-0.341-1.122-0.473-1.75   h-0.022c-0.132,0.639-0.297,1.188-0.484,1.761l-0.858,2.53h-0.88l-1.606-5.325H44.657z"
   id="path11" />
	<path
   fill="#FFFFFF"
   d="M54.875,189.425l0.704,2.707c0.154,0.594,0.297,1.144,0.396,1.694h0.033   c0.121-0.539,0.297-1.111,0.473-1.694l0.869-2.707h0.814l0.825,2.663c0.198,0.638,0.352,1.199,0.473,1.738h0.033   c0.088-0.539,0.231-1.101,0.407-1.728l0.759-2.674h0.957l-1.716,5.325h-0.88l-0.814-2.541c-0.187-0.595-0.341-1.122-0.473-1.75   h-0.022c-0.132,0.639-0.297,1.188-0.484,1.761l-0.858,2.53h-0.88l-1.606-5.325H54.875z"
   id="path13" />
	<path
   fill="#FFFFFF"
   d="M64.556,194.872c-0.374,0-0.638-0.297-0.638-0.693c0-0.407,0.275-0.693,0.66-0.693   c0.385,0,0.649,0.286,0.649,0.693c0,0.396-0.253,0.693-0.66,0.693H64.556z"
   id="path15" />
	<path
   fill="#FFFFFF"
   d="M68.516,194.75v-4.588h-0.749v-0.737h0.749v-0.253c0-0.748,0.165-1.43,0.616-1.859   c0.363-0.352,0.847-0.495,1.298-0.495c0.341,0,0.638,0.077,0.825,0.154l-0.132,0.748c-0.143-0.065-0.341-0.121-0.616-0.121   c-0.825,0-1.034,0.727-1.034,1.541v0.285h1.287v0.737h-1.287v4.588H68.516z"
   id="path17" />
	<path
   fill="#FFFFFF"
   d="M74.016,192.264c0.022,1.31,0.858,1.849,1.826,1.849c0.693,0,1.111-0.121,1.474-0.275l0.165,0.693   c-0.341,0.153-0.924,0.341-1.771,0.341c-1.64,0-2.619-1.089-2.619-2.695s0.946-2.871,2.498-2.871c1.738,0,2.2,1.528,2.2,2.508   c0,0.198-0.022,0.353-0.033,0.451H74.016z M76.854,191.571c0.011-0.616-0.253-1.573-1.342-1.573c-0.979,0-1.408,0.902-1.485,1.573   H76.854z"
   id="path19" />
	<path
   fill="#FFFFFF"
   d="M80.979,190.867c0-0.55-0.011-1.001-0.044-1.441h0.858l0.055,0.881h0.022   c0.264-0.507,0.88-1.001,1.76-1.001c0.737,0,1.881,0.439,1.881,2.266v3.18h-0.968v-3.069c0-0.858-0.319-1.573-1.232-1.573   c-0.638,0-1.133,0.451-1.298,0.99c-0.044,0.121-0.066,0.286-0.066,0.451v3.201h-0.968V190.867z"
   id="path21" />
	<path
   fill="#FFFFFF"
   d="M90.153,187.929c0.011,0.33-0.231,0.595-0.616,0.595c-0.341,0-0.583-0.265-0.583-0.595   c0-0.341,0.253-0.604,0.605-0.604C89.922,187.325,90.153,187.588,90.153,187.929z M89.075,194.75v-5.325h0.968v5.325H89.075z"
   id="path23" />
	<path
   fill="#FFFFFF"
   d="M97.435,194.552c-0.253,0.132-0.814,0.319-1.529,0.319c-1.606,0-2.651-1.101-2.651-2.729   c0-1.64,1.122-2.827,2.86-2.827c0.572,0,1.078,0.143,1.342,0.274l-0.22,0.748c-0.231-0.132-0.594-0.253-1.123-0.253   c-1.221,0-1.881,0.902-1.881,2.014c0,1.232,0.792,1.991,1.849,1.991c0.55,0,0.913-0.143,1.188-0.264L97.435,194.552z"
   id="path25" />
	<path
   fill="#FFFFFF"
   d="M100.426,193.76c0.286,0.188,0.792,0.385,1.276,0.385c0.704,0,1.035-0.352,1.035-0.792   c0-0.462-0.275-0.715-0.991-0.979c-0.957-0.342-1.408-0.869-1.408-1.508c0-0.857,0.693-1.562,1.837-1.562   c0.539,0,1.013,0.153,1.31,0.329l-0.242,0.704c-0.209-0.132-0.594-0.308-1.089-0.308c-0.572,0-0.891,0.33-0.891,0.727   c0,0.439,0.319,0.638,1.012,0.901c0.923,0.353,1.397,0.814,1.397,1.606c0,0.936-0.726,1.606-1.991,1.606   c-0.583,0-1.122-0.154-1.496-0.374L100.426,193.76z"
   id="path27" />
	<path
   fill="#FFFFFF"
   d="M107.191,194.872c-0.374,0-0.638-0.297-0.638-0.693c0-0.407,0.275-0.693,0.66-0.693   s0.648,0.286,0.648,0.693c0,0.396-0.252,0.693-0.66,0.693H107.191z"
   id="path29" />
	<path
   fill="#FFFFFF"
   d="M115.871,192.044c0,1.969-1.364,2.827-2.651,2.827c-1.441,0-2.553-1.057-2.553-2.739   c0-1.782,1.167-2.827,2.641-2.827C114.837,189.305,115.871,190.416,115.871,192.044z M111.646,192.099   c0,1.166,0.671,2.046,1.618,2.046c0.924,0,1.617-0.869,1.617-2.068c0-0.901-0.451-2.046-1.596-2.046   S111.646,191.087,111.646,192.099z"
   id="path31" />
	<path
   fill="#FFFFFF"
   d="M119.083,191.087c0-0.628-0.012-1.167-0.045-1.662h0.848l0.033,1.046h0.043   c0.242-0.716,0.826-1.166,1.475-1.166c0.11,0,0.188,0.011,0.275,0.032v0.913c-0.1-0.021-0.198-0.032-0.33-0.032   c-0.682,0-1.166,0.517-1.299,1.243c-0.021,0.132-0.043,0.285-0.043,0.45v2.839h-0.957V191.087z"
   id="path33" />
	<path
   fill="#FFFFFF"
   d="M129.126,193.98c0,1.222-0.242,1.97-0.759,2.432c-0.517,0.484-1.266,0.639-1.937,0.639   c-0.639,0-1.342-0.154-1.771-0.44l0.242-0.737c0.352,0.22,0.902,0.418,1.562,0.418c0.99,0,1.716-0.517,1.716-1.859v-0.594h-0.022   c-0.297,0.495-0.869,0.891-1.693,0.891c-1.32,0-2.267-1.122-2.267-2.596c0-1.805,1.177-2.827,2.398-2.827   c0.925,0,1.431,0.483,1.661,0.924h0.021l0.045-0.804h0.847c-0.022,0.386-0.044,0.814-0.044,1.464V193.98z M128.169,191.527   c0-0.165-0.012-0.308-0.055-0.439c-0.176-0.562-0.649-1.023-1.354-1.023c-0.924,0-1.584,0.781-1.584,2.013   c0,1.046,0.527,1.915,1.572,1.915c0.595,0,1.134-0.374,1.343-0.99c0.056-0.165,0.077-0.353,0.077-0.518V191.527z"
   id="path35" />
</g>
</svg>