<?xml version="1.0" encoding="UTF-8" standalone="no"?>
<svg width="1000" height="1000">
  <g>
    <path
       style="fill:none;fill-rule:evenodd;stroke:#000000;stroke-width:1px;stroke-linecap:butt;stroke-linejoin:miter;stroke-opacity:1"
       d="M 100 500 L 104 492.233 L 106 490.755 L 110 488.246 L 120 483.447 L 140 476.32 L 160 470.767 L 180 466.16 L 220 458.819 L 260 453.28 L 300 449.142 L 340 446.198 L 380 444.434 L 420 443.761 L 460 444.139 L 500 445.479 L 540 447.698 L 580 450.722 L 620 454.509 L 660 459.026 L 700 464.234 L 740 470.167 L 780 477.216 L 820 484.598 L 860 492.242 L 900 500 L 860 499.842 L 820 499.575 L 780 499.51 L 740 499.73 L 700 501.04 L 660 502.998 L 620 505.245 L 580 507.57 L 540 509.845 L 500 511.967 L 460 513.83 L 420 515.334 L 380 516.393 L 340 516.987 L 300 517.078 L 260 516.726 L 220 515.843 L 180 514.245 L 160 513.038 L 140 511.371 L 120 508.822 L 110 506.675 L 106 505.358 L 104 504.399 L 100 500 z"/>
  </g>
</svg>
