<?xml version="1.0" encoding="UTF-8" standalone="no"?>
<!-- Created with Inkscape (http://www.inkscape.org/) -->

<svg
   xmlns:dc="http://purl.org/dc/elements/1.1/"
   xmlns:cc="http://creativecommons.org/ns#"
   xmlns:rdf="http://www.w3.org/1999/02/22-rdf-syntax-ns#"
   xmlns:svg="http://www.w3.org/2000/svg"
   xmlns="http://www.w3.org/2000/svg"
   xmlns:sodipodi="http://sodipodi.sourceforge.net/DTD/sodipodi-0.dtd"
   xmlns:inkscape="http://www.inkscape.org/namespaces/inkscape"
   width="744.09448819"
   height="1052.3622047"
   id="svg2"
   version="1.1"
   inkscape:version="0.48.0 r9654"
   sodipodi:docname="scale_tex.pdf">
  <defs
     id="defs4">
    <clipPath
       id="clipPath6323"
       clipPathUnits="userSpaceOnUse">
      <path
         id="path6325"
         d="m 5669.29,2032.16 -5385.825,0 0,4354.58 5385.825,0 0,-4354.58 z" />
    </clipPath>
    <clipPath
       id="clipPath6147"
       clipPathUnits="userSpaceOnUse">
      <path
         id="path6149"
         d="m 5669.29,2032.16 -1031.24,0 0,4354.58 1031.24,0 0,-4354.58 z" />
    </clipPath>
  </defs>
  <sodipodi:namedview
     id="base"
     pagecolor="#ffffff"
     bordercolor="#666666"
     borderopacity="1.0"
     inkscape:pageopacity="0.0"
     inkscape:pageshadow="2"
     inkscape:zoom="1.1457696"
     inkscape:cx="1952.1253"
     inkscape:cy="654.28571"
     inkscape:document-units="px"
     inkscape:current-layer="layer2"
     showgrid="true"
     showguides="false"
     inkscape:window-width="1280"
     inkscape:window-height="779"
     inkscape:window-x="0"
     inkscape:window-y="0"
     inkscape:window-maximized="1">
    <inkscape:grid
       type="xygrid"
       id="grid6421" />
    <sodipodi:guide
       position="0,0"
       orientation="0,744.09448"
       id="guide6423" />
    <sodipodi:guide
       position="744.09448,0"
       orientation="-1052.3622,0"
       id="guide6425" />
    <sodipodi:guide
       position="744.09448,1052.3622"
       orientation="0,-744.09448"
       id="guide6427" />
    <sodipodi:guide
       position="0,1052.3622"
       orientation="1052.3622,0"
       id="guide6429" />
  </sodipodi:namedview>
  <metadata
     id="metadata7">
    <rdf:RDF>
      <cc:Work
         rdf:about="">
        <dc:format>image/svg+xml</dc:format>
        <dc:type
           rdf:resource="http://purl.org/dc/dcmitype/StillImage" />
        <dc:title></dc:title>
      </cc:Work>
    </rdf:RDF>
  </metadata>
  <g
     inkscape:label="Layer 1"
     inkscape:groupmode="layer"
     id="layer1"
     style="display:inline">
    <g
       transform="matrix(0,1.2125536,1.25,0,1505.2473,-245.0708)"
       inkscape:label="ink_ext_XXXXXX"
       id="g6139">
      <g
         transform="scale(0.1,0.1)"
         id="g6141">
        <g
           id="g6143">
          <g
             clip-path="url(#clipPath6147)"
             id="g6145">
            <path
               id="path6151"
               style="fill:#ffffff;fill-opacity:1;fill-rule:nonzero;stroke:none"
               d="m 4638.05,2032.16 1031.25,0 0,4354.58 -1031.25,0 0,-4354.58 z"
               inkscape:connector-curvature="0" />
            <path
               id="path6153"
               style="fill:#00003b;fill-opacity:1;fill-rule:nonzero;stroke:none"
               d="m 4689.64,2119.18 154.488,0 0,64.0625 -154.488,0 0,-64.0625 z"
               inkscape:connector-curvature="0" />
            <path
               id="path6155"
               style="fill:#000059;fill-opacity:1;fill-rule:nonzero;stroke:none"
               d="m 4689.64,2183.24 154.488,0 0,63.7812 -154.488,0 0,-63.7812 z"
               inkscape:connector-curvature="0" />
            <path
               id="path6157"
               style="fill:#000076;fill-opacity:1;fill-rule:nonzero;stroke:none"
               d="m 4689.64,2247.02 154.488,0 0,64.0625 -154.488,0 0,-64.0625 z"
               inkscape:connector-curvature="0" />
            <path
               id="path6159"
               style="fill:#000094;fill-opacity:1;fill-rule:nonzero;stroke:none"
               d="m 4689.64,2311.09 154.488,0 0,64.0625 -154.488,0 0,-64.0625 z"
               inkscape:connector-curvature="0" />
            <path
               id="path6161"
               style="fill:#0000b1;fill-opacity:1;fill-rule:nonzero;stroke:none"
               d="m 4689.64,2375.15 154.488,0 0,63.7812 -154.488,0 0,-63.7812 z"
               inkscape:connector-curvature="0" />
            <path
               id="path6163"
               style="fill:#0000ce;fill-opacity:1;fill-rule:nonzero;stroke:none"
               d="m 4689.64,2438.93 154.488,0 0,64.0625 -154.488,0 0,-64.0625 z"
               inkscape:connector-curvature="0" />
            <path
               id="path6165"
               style="fill:#0000ec;fill-opacity:1;fill-rule:nonzero;stroke:none"
               d="m 4689.64,2502.99 154.488,0 0,64.0625 -154.488,0 0,-64.0625 z"
               inkscape:connector-curvature="0" />
            <path
               id="path6167"
               style="fill:#0000ff;fill-opacity:1;fill-rule:nonzero;stroke:none"
               d="m 4689.64,2567.05 154.488,0 0,63.7812 -154.488,0 0,-63.7812 z"
               inkscape:connector-curvature="0" />
            <path
               id="path6169"
               style="fill:#000fff;fill-opacity:1;fill-rule:nonzero;stroke:none"
               d="m 4689.64,2630.84 154.488,0 0,64.0625 -154.488,0 0,-64.0625 z"
               inkscape:connector-curvature="0" />
            <path
               id="path6171"
               style="fill:#001fff;fill-opacity:1;fill-rule:nonzero;stroke:none"
               d="m 4689.64,2694.9 154.488,0 0,63.7773 -154.488,0 0,-63.7773 z"
               inkscape:connector-curvature="0" />
            <path
               id="path6173"
               style="fill:#002eff;fill-opacity:1;fill-rule:nonzero;stroke:none"
               d="m 4689.64,2758.68 154.488,0 0,64.0625 -154.488,0 0,-64.0625 z"
               inkscape:connector-curvature="0" />
            <path
               id="path6175"
               style="fill:#003eff;fill-opacity:1;fill-rule:nonzero;stroke:none"
               d="m 4689.64,2822.74 154.488,0 0,64.0664 -154.488,0 0,-64.0664 z"
               inkscape:connector-curvature="0" />
            <path
               id="path6177"
               style="fill:#004eff;fill-opacity:1;fill-rule:nonzero;stroke:none"
               d="m 4689.64,2886.8 154.488,0 0,63.7773 -154.488,0 0,-63.7773 z"
               inkscape:connector-curvature="0" />
            <path
               id="path6179"
               style="fill:#005dff;fill-opacity:1;fill-rule:nonzero;stroke:none"
               d="m 4689.64,2950.58 154.488,0 0,64.0625 -154.488,0 0,-64.0625 z"
               inkscape:connector-curvature="0" />
            <path
               id="path6181"
               style="fill:#006dff;fill-opacity:1;fill-rule:nonzero;stroke:none"
               d="m 4689.64,3014.64 154.488,0 0,64.0625 -154.488,0 0,-64.0625 z"
               inkscape:connector-curvature="0" />
            <path
               id="path6183"
               style="fill:#007cff;fill-opacity:1;fill-rule:nonzero;stroke:none"
               d="m 4689.64,3078.71 154.488,0 0,63.7812 -154.488,0 0,-63.7812 z"
               inkscape:connector-curvature="0" />
            <path
               id="path6185"
               style="fill:#008cff;fill-opacity:1;fill-rule:nonzero;stroke:none"
               d="m 4689.64,3142.49 154.488,0 0,64.0625 -154.488,0 0,-64.0625 z"
               inkscape:connector-curvature="0" />
            <path
               id="path6187"
               style="fill:#009cff;fill-opacity:1;fill-rule:nonzero;stroke:none"
               d="m 4689.64,3206.55 154.488,0 0,63.7812 -154.488,0 0,-63.7812 z"
               inkscape:connector-curvature="0" />
            <path
               id="path6189"
               style="fill:#00abff;fill-opacity:1;fill-rule:nonzero;stroke:none"
               d="m 4689.64,3270.33 154.488,0 0,64.0625 -154.488,0 0,-64.0625 z"
               inkscape:connector-curvature="0" />
            <path
               id="path6191"
               style="fill:#00bbff;fill-opacity:1;fill-rule:nonzero;stroke:none"
               d="m 4689.64,3334.39 154.488,0 0,64.0625 -154.488,0 0,-64.0625 z"
               inkscape:connector-curvature="0" />
            <path
               id="path6193"
               style="fill:#00caff;fill-opacity:1;fill-rule:nonzero;stroke:none"
               d="m 4689.64,3398.46 154.488,0 0,63.7773 -154.488,0 0,-63.7773 z"
               inkscape:connector-curvature="0" />
            <path
               id="path6195"
               style="fill:#00daff;fill-opacity:1;fill-rule:nonzero;stroke:none"
               d="m 4689.64,3462.23 154.488,0 0,64.0664 -154.488,0 0,-64.0664 z"
               inkscape:connector-curvature="0" />
            <path
               id="path6197"
               style="fill:#00eaff;fill-opacity:1;fill-rule:nonzero;stroke:none"
               d="m 4689.64,3526.3 154.488,0 0,64.0625 -154.488,0 0,-64.0625 z"
               inkscape:connector-curvature="0" />
            <path
               id="path6199"
               style="fill:#00f9ff;fill-opacity:1;fill-rule:nonzero;stroke:none"
               d="m 4689.64,3590.36 154.488,0 0,63.7773 -154.488,0 0,-63.7773 z"
               inkscape:connector-curvature="0" />
            <path
               id="path6201"
               style="fill:#0afff4;fill-opacity:1;fill-rule:nonzero;stroke:none"
               d="m 4689.64,3654.14 154.488,0 0,64.0625 -154.488,0 0,-64.0625 z"
               inkscape:connector-curvature="0" />
            <path
               id="path6203"
               style="fill:#1affe4;fill-opacity:1;fill-rule:nonzero;stroke:none"
               d="m 4689.64,3718.2 154.488,0 0,63.7812 -154.488,0 0,-63.7812 z"
               inkscape:connector-curvature="0" />
            <path
               id="path6205"
               style="fill:#29ffd5;fill-opacity:1;fill-rule:nonzero;stroke:none"
               d="m 4689.64,3781.98 154.488,0 0,64.0625 -154.488,0 0,-64.0625 z"
               inkscape:connector-curvature="0" />
            <path
               id="path6207"
               style="fill:#39ffc5;fill-opacity:1;fill-rule:nonzero;stroke:none"
               d="m 4689.64,3846.05 154.488,0 0,64.0625 -154.488,0 0,-64.0625 z"
               inkscape:connector-curvature="0" />
            <path
               id="path6209"
               style="fill:#48ffb6;fill-opacity:1;fill-rule:nonzero;stroke:none"
               d="m 4689.64,3910.11 154.488,0 0,63.7812 -154.488,0 0,-63.7812 z"
               inkscape:connector-curvature="0" />
            <path
               id="path6211"
               style="fill:#58ffa6;fill-opacity:1;fill-rule:nonzero;stroke:none"
               d="m 4689.64,3973.89 154.488,0 0,64.0625 -154.488,0 0,-64.0625 z"
               inkscape:connector-curvature="0" />
            <path
               id="path6213"
               style="fill:#68ff96;fill-opacity:1;fill-rule:nonzero;stroke:none"
               d="m 4689.64,4037.95 154.488,0 0,64.0625 -154.488,0 0,-64.0625 z"
               inkscape:connector-curvature="0" />
            <path
               id="path6215"
               style="fill:#77ff87;fill-opacity:1;fill-rule:nonzero;stroke:none"
               d="m 4689.64,4102.02 154.488,0 0,63.7812 -154.488,0 0,-63.7812 z"
               inkscape:connector-curvature="0" />
            <path
               id="path6217"
               style="fill:#87ff77;fill-opacity:1;fill-rule:nonzero;stroke:none"
               d="m 4689.64,4165.8 154.488,0 0,64.0625 -154.488,0 0,-64.0625 z"
               inkscape:connector-curvature="0" />
            <path
               id="path6219"
               style="fill:#96ff68;fill-opacity:1;fill-rule:nonzero;stroke:none"
               d="m 4689.64,4229.86 154.488,0 0,63.7773 -154.488,0 0,-63.7773 z"
               inkscape:connector-curvature="0" />
            <path
               id="path6221"
               style="fill:#a6ff58;fill-opacity:1;fill-rule:nonzero;stroke:none"
               d="m 4689.64,4293.64 154.488,0 0,64.0625 -154.488,0 0,-64.0625 z"
               inkscape:connector-curvature="0" />
            <path
               id="path6223"
               style="fill:#b6ff48;fill-opacity:1;fill-rule:nonzero;stroke:none"
               d="m 4689.64,4357.7 154.488,0 0,64.0664 -154.488,0 0,-64.0664 z"
               inkscape:connector-curvature="0" />
            <path
               id="path6225"
               style="fill:#c5ff39;fill-opacity:1;fill-rule:nonzero;stroke:none"
               d="m 4689.64,4421.77 154.488,0 0,63.7773 -154.488,0 0,-63.7773 z"
               inkscape:connector-curvature="0" />
            <path
               id="path6227"
               style="fill:#d5ff29;fill-opacity:1;fill-rule:nonzero;stroke:none"
               d="m 4689.64,4485.54 154.488,0 0,64.0625 -154.488,0 0,-64.0625 z"
               inkscape:connector-curvature="0" />
            <path
               id="path6229"
               style="fill:#e4ff1a;fill-opacity:1;fill-rule:nonzero;stroke:none"
               d="m 4689.64,4549.61 154.488,0 0,64.0625 -154.488,0 0,-64.0625 z"
               inkscape:connector-curvature="0" />
            <path
               id="path6231"
               style="fill:#f4ff0a;fill-opacity:1;fill-rule:nonzero;stroke:none"
               d="m 4689.64,4613.67 154.488,0 0,63.7812 -154.488,0 0,-63.7812 z"
               inkscape:connector-curvature="0" />
            <path
               id="path6233"
               style="fill:#fff900;fill-opacity:1;fill-rule:nonzero;stroke:none"
               d="m 4689.64,4677.45 154.488,0 0,64.0625 -154.488,0 0,-64.0625 z"
               inkscape:connector-curvature="0" />
            <path
               id="path6235"
               style="fill:#ffea00;fill-opacity:1;fill-rule:nonzero;stroke:none"
               d="m 4689.64,4741.51 154.488,0 0,63.7812 -154.488,0 0,-63.7812 z"
               inkscape:connector-curvature="0" />
            <path
               id="path6237"
               style="fill:#ffda00;fill-opacity:1;fill-rule:nonzero;stroke:none"
               d="m 4689.64,4805.29 154.488,0 0,64.0625 -154.488,0 0,-64.0625 z"
               inkscape:connector-curvature="0" />
            <path
               id="path6239"
               style="fill:#ffca00;fill-opacity:1;fill-rule:nonzero;stroke:none"
               d="m 4689.64,4869.36 154.488,0 0,64.0625 -154.488,0 0,-64.0625 z"
               inkscape:connector-curvature="0" />
            <path
               id="path6241"
               style="fill:#ffbb00;fill-opacity:1;fill-rule:nonzero;stroke:none"
               d="m 4689.64,4933.42 154.488,0 0,63.7773 -154.488,0 0,-63.7773 z"
               inkscape:connector-curvature="0" />
            <path
               id="path6243"
               style="fill:#ffab00;fill-opacity:1;fill-rule:nonzero;stroke:none"
               d="m 4689.64,4997.2 154.488,0 0,64.0664 -154.488,0 0,-64.0664 z"
               inkscape:connector-curvature="0" />
            <path
               id="path6245"
               style="fill:#ff9c00;fill-opacity:1;fill-rule:nonzero;stroke:none"
               d="m 4689.64,5061.26 154.488,0 0,64.0625 -154.488,0 0,-64.0625 z"
               inkscape:connector-curvature="0" />
            <path
               id="path6247"
               style="fill:#ff8c00;fill-opacity:1;fill-rule:nonzero;stroke:none"
               d="m 4689.64,5125.32 154.488,0 0,63.7773 -154.488,0 0,-63.7773 z"
               inkscape:connector-curvature="0" />
            <path
               id="path6249"
               style="fill:#ff7c00;fill-opacity:1;fill-rule:nonzero;stroke:none"
               d="m 4689.64,5189.1 154.488,0 0,64.0625 -154.488,0 0,-64.0625 z"
               inkscape:connector-curvature="0" />
            <path
               id="path6251"
               style="fill:#ff6d00;fill-opacity:1;fill-rule:nonzero;stroke:none"
               d="m 4689.64,5253.16 154.488,0 0,63.7812 -154.488,0 0,-63.7812 z"
               inkscape:connector-curvature="0" />
            <path
               id="path6253"
               style="fill:#ff5d00;fill-opacity:1;fill-rule:nonzero;stroke:none"
               d="m 4689.64,5316.95 154.488,0 0,64.0625 -154.488,0 0,-64.0625 z"
               inkscape:connector-curvature="0" />
            <path
               id="path6255"
               style="fill:#ff4e00;fill-opacity:1;fill-rule:nonzero;stroke:none"
               d="m 4689.64,5381.01 154.488,0 0,64.0625 -154.488,0 0,-64.0625 z"
               inkscape:connector-curvature="0" />
            <path
               id="path6257"
               style="fill:#ff3e00;fill-opacity:1;fill-rule:nonzero;stroke:none"
               d="m 4689.64,5445.07 154.488,0 0,63.7812 -154.488,0 0,-63.7812 z"
               inkscape:connector-curvature="0" />
            <path
               id="path6259"
               style="fill:#ff2e00;fill-opacity:1;fill-rule:nonzero;stroke:none"
               d="m 4689.64,5508.85 154.488,0 0,64.0625 -154.488,0 0,-64.0625 z"
               inkscape:connector-curvature="0" />
            <path
               id="path6261"
               style="fill:#ff1f00;fill-opacity:1;fill-rule:nonzero;stroke:none"
               d="m 4689.64,5572.91 154.488,0 0,64.0625 -154.488,0 0,-64.0625 z"
               inkscape:connector-curvature="0" />
            <path
               id="path6263"
               style="fill:#ff0f00;fill-opacity:1;fill-rule:nonzero;stroke:none"
               d="m 4689.64,5636.98 154.488,0 0,63.7773 -154.488,0 0,-63.7773 z"
               inkscape:connector-curvature="0" />
            <path
               id="path6265"
               style="fill:#ff0000;fill-opacity:1;fill-rule:nonzero;stroke:none"
               d="m 4689.64,5700.75 154.488,0 0,64.0664 -154.488,0 0,-64.0664 z"
               inkscape:connector-curvature="0" />
            <path
               id="path6267"
               style="fill:#ff2424;fill-opacity:1;fill-rule:nonzero;stroke:none"
               d="m 4689.64,5764.82 154.488,0 0,63.7773 -154.488,0 0,-63.7773 z"
               inkscape:connector-curvature="0" />
            <path
               id="path6269"
               style="fill:#ff4949;fill-opacity:1;fill-rule:nonzero;stroke:none"
               d="m 4689.64,5828.6 154.488,0 0,64.0625 -154.488,0 0,-64.0625 z"
               inkscape:connector-curvature="0" />
            <path
               id="path6271"
               style="fill:#ff6d6d;fill-opacity:1;fill-rule:nonzero;stroke:none"
               d="m 4689.64,5892.66 154.488,0 0,64.0625 -154.488,0 0,-64.0625 z"
               inkscape:connector-curvature="0" />
            <path
               id="path6273"
               style="fill:#ff9292;fill-opacity:1;fill-rule:nonzero;stroke:none"
               d="m 4689.64,5956.72 154.488,0 0,63.7812 -154.488,0 0,-63.7812 z"
               inkscape:connector-curvature="0" />
            <path
               id="path6275"
               style="fill:#ffb6b6;fill-opacity:1;fill-rule:nonzero;stroke:none"
               d="m 4689.64,6020.5 154.488,0 0,64.0625 -154.488,0 0,-64.0625 z"
               inkscape:connector-curvature="0" />
            <path
               id="path6277"
               style="fill:#ffdbdb;fill-opacity:1;fill-rule:nonzero;stroke:none"
               d="m 4689.64,6084.57 154.488,0 0,64.0625 -154.488,0 0,-64.0625 z"
               inkscape:connector-curvature="0" />
            <path
               id="path6279"
               style="fill:#ffffff;fill-opacity:1;fill-rule:nonzero;stroke:none"
               d="m 4689.64,6148.63 154.488,0 0,63.7812 -154.488,0 0,-63.7812 z"
               inkscape:connector-curvature="0" />
            <path
               id="path6281"
               style="fill:none;stroke:#000000;stroke-width:2.26771998;stroke-linecap:butt;stroke-linejoin:round;stroke-miterlimit:10;stroke-opacity:1;stroke-dasharray:none"
               d="m 4844.12,2119.18 -154.48,0"
               inkscape:connector-curvature="0" />
            <path
               id="path6283"
               style="fill:none;stroke:#000000;stroke-width:2.26771998;stroke-linecap:butt;stroke-linejoin:round;stroke-miterlimit:10;stroke-opacity:1;stroke-dasharray:none"
               d="m 4844.12,6212.41 0,-4093.23"
               inkscape:connector-curvature="0" />
            <path
               id="path6285"
               style="fill:none;stroke:#000000;stroke-width:2.26771998;stroke-linecap:butt;stroke-linejoin:round;stroke-miterlimit:10;stroke-opacity:1;stroke-dasharray:none"
               d="m 4689.64,6212.41 154.48,0"
               inkscape:connector-curvature="0" />
            <path
               id="path6287"
               style="fill:none;stroke:#000000;stroke-width:2.26771998;stroke-linecap:butt;stroke-linejoin:round;stroke-miterlimit:10;stroke-opacity:1;stroke-dasharray:none"
               d="m 4689.64,2119.18 0,4093.23"
               inkscape:connector-curvature="0" />
            <path
               id="path6289"
               style="fill:none;stroke:#000000;stroke-width:2.26771998;stroke-linecap:butt;stroke-linejoin:round;stroke-miterlimit:10;stroke-opacity:1;stroke-dasharray:none"
               d="m 4880.41,2119.18 -36.29,0"
               inkscape:connector-curvature="0" />
            <path
               id="path6291"
               style="fill:none;stroke:#000000;stroke-width:2.26771998;stroke-linecap:butt;stroke-linejoin:round;stroke-miterlimit:10;stroke-opacity:1;stroke-dasharray:none"
               d="m 4880.41,2528.5 -36.29,0"
               inkscape:connector-curvature="0" />
            <path
               id="path6293"
               style="fill:none;stroke:#000000;stroke-width:2.26771998;stroke-linecap:butt;stroke-linejoin:round;stroke-miterlimit:10;stroke-opacity:1;stroke-dasharray:none"
               d="m 4880.41,2937.83 -36.29,0"
               inkscape:connector-curvature="0" />
            <path
               id="path6295"
               style="fill:none;stroke:#000000;stroke-width:2.26771998;stroke-linecap:butt;stroke-linejoin:round;stroke-miterlimit:10;stroke-opacity:1;stroke-dasharray:none"
               d="m 4880.41,3347.15 -36.29,0"
               inkscape:connector-curvature="0" />
            <path
               id="path6297"
               style="fill:none;stroke:#000000;stroke-width:2.26771998;stroke-linecap:butt;stroke-linejoin:round;stroke-miterlimit:10;stroke-opacity:1;stroke-dasharray:none"
               d="m 4880.41,3756.47 -36.29,0"
               inkscape:connector-curvature="0" />
            <path
               id="path6299"
               style="fill:none;stroke:#000000;stroke-width:2.26771998;stroke-linecap:butt;stroke-linejoin:round;stroke-miterlimit:10;stroke-opacity:1;stroke-dasharray:none"
               d="m 4880.41,4165.8 -36.29,0"
               inkscape:connector-curvature="0" />
            <path
               id="path6301"
               style="fill:none;stroke:#000000;stroke-width:2.26771998;stroke-linecap:butt;stroke-linejoin:round;stroke-miterlimit:10;stroke-opacity:1;stroke-dasharray:none"
               d="m 4880.41,4575.12 -36.29,0"
               inkscape:connector-curvature="0" />
            <path
               id="path6303"
               style="fill:none;stroke:#000000;stroke-width:2.26771998;stroke-linecap:butt;stroke-linejoin:round;stroke-miterlimit:10;stroke-opacity:1;stroke-dasharray:none"
               d="m 4880.41,4984.44 -36.29,0"
               inkscape:connector-curvature="0" />
            <path
               id="path6305"
               style="fill:none;stroke:#000000;stroke-width:2.26771998;stroke-linecap:butt;stroke-linejoin:round;stroke-miterlimit:10;stroke-opacity:1;stroke-dasharray:none"
               d="m 4880.41,5393.77 -36.29,0"
               inkscape:connector-curvature="0" />
            <path
               id="path6307"
               style="fill:none;stroke:#000000;stroke-width:2.26771998;stroke-linecap:butt;stroke-linejoin:round;stroke-miterlimit:10;stroke-opacity:1;stroke-dasharray:none"
               d="m 4880.41,5803.09 -36.29,0"
               inkscape:connector-curvature="0" />
            <path
               id="path6309"
               style="fill:none;stroke:#000000;stroke-width:2.26771998;stroke-linecap:butt;stroke-linejoin:round;stroke-miterlimit:10;stroke-opacity:1;stroke-dasharray:none"
               d="m 4880.41,6212.41 -36.29,0"
               inkscape:connector-curvature="0" />
          </g>
        </g>
        <g
           id="g6319">
          <g
             clip-path="url(#clipPath6323)"
             id="g6321" />
        </g>
      </g>
    </g>
    <text
       xml:space="preserve"
       style="font-size:40px;font-style:normal;font-variant:normal;font-weight:normal;font-stretch:normal;text-align:start;line-height:125%;letter-spacing:0px;word-spacing:0px;writing-mode:lr-tb;text-anchor:start;fill:#000000;fill-opacity:1;stroke:none;font-family:Bitstream Vera Sans;-inkscape-font-specification:Bitstream Vera Sans"
       x="1750"
       y="372.36218"
       id="text6436"
       sodipodi:linespacing="125%"><tspan
         sodipodi:role="line"
         id="tspan6438"
         x="1750"
         y="372.36218"
         style="font-size:24px">{\tt min}</tspan></text>
  </g>
  <g
     inkscape:groupmode="layer"
     id="layer2"
     inkscape:label="Text">
    <text
       xml:space="preserve"
       style="font-size:40px;font-style:normal;font-variant:normal;font-weight:normal;font-stretch:normal;text-align:start;line-height:125%;letter-spacing:0px;word-spacing:0px;writing-mode:lr-tb;text-anchor:start;fill:#000000;fill-opacity:1;stroke:none;font-family:Bitstream Vera Sans;-inkscape-font-specification:Bitstream Vera Sans"
       x="2250"
       y="372.36218"
       id="text6432"
       sodipodi:linespacing="125%"><tspan
         sodipodi:role="line"
         id="tspan6434"
         x="2250"
         y="372.36218"
         style="font-size:24px">{\tt Max}</tspan></text>
  </g>
</svg>
