<?xml version="1.0" encoding="UTF-8" standalone="no"?>
<!-- Created with Inkscape (http://www.inkscape.org/) -->

<svg
   xmlns:dc="http://purl.org/dc/elements/1.1/"
   xmlns:cc="http://creativecommons.org/ns#"
   xmlns:rdf="http://www.w3.org/1999/02/22-rdf-syntax-ns#"
   xmlns:svg="http://www.w3.org/2000/svg"
   xmlns="http://www.w3.org/2000/svg"
   xmlns:sodipodi="http://sodipodi.sourceforge.net/DTD/sodipodi-0.dtd"
   xmlns:inkscape="http://www.inkscape.org/namespaces/inkscape"
   version="1.1"
   inkscape:output_extension="org.inkscape.output.svg.inkscape"
   sodipodi:docname="arbitrary_waveguide_cross_section.pdf"
   inkscape:version="0.48.0 r9654"
   sodipodi:version="0.32"
   id="svg2"
   height="1052.3622047"
   width="744.09448819">
  <sodipodi:namedview
     id="base"
     pagecolor="#ffffff"
     bordercolor="#666666"
     borderopacity="1.0"
     gridtolerance="10000"
     guidetolerance="10"
     objecttolerance="10"
     inkscape:pageopacity="0.0"
     inkscape:pageshadow="2"
     inkscape:zoom="1.4142136"
     inkscape:cx="224.01231"
     inkscape:cy="496.56616"
     inkscape:document-units="px"
     inkscape:current-layer="layer1"
     showgrid="true"
     inkscape:window-width="1270"
     inkscape:window-height="746"
     inkscape:window-x="0"
     inkscape:window-y="24"
     inkscape:window-maximized="0"
     inkscape:snap-nodes="true"
     inkscape:snap-global="false"
     showguides="true"
     inkscape:guide-bbox="true">
    <inkscape:grid
       id="grid5405"
       type="xygrid" />
  </sodipodi:namedview>
  <defs
     id="defs4">
    <marker
       style="overflow:visible;"
       id="Arrow1Mend"
       refX="0.0"
       refY="0.0"
       orient="auto"
       inkscape:stockid="Arrow1Mend">
      <path
         transform="scale(0.4) rotate(180) translate(10,0)"
         style="fill-rule:evenodd;stroke:#000000;stroke-width:1.0pt;marker-start:none;"
         d="M 0.0,0.0 L 5.0,-5.0 L -12.5,0.0 L 5.0,5.0 L 0.0,0.0 z "
         id="path4304" />
    </marker>
    <marker
       style="overflow:visible;"
       id="Arrow1Lend"
       refX="0.0"
       refY="0.0"
       orient="auto"
       inkscape:stockid="Arrow1Lend">
      <path
         transform="scale(0.8) rotate(180) translate(12.5,0)"
         style="fill-rule:evenodd;stroke:#000000;stroke-width:1.0pt;marker-start:none;"
         d="M 0.0,0.0 L 5.0,-5.0 L -12.5,0.0 L 5.0,5.0 L 0.0,0.0 z "
         id="path5415" />
    </marker>
    <inkscape:perspective
       sodipodi:type="inkscape:persp3d"
       inkscape:vp_x="0 : 526.18109 : 1"
       inkscape:vp_y="0 : 1000 : 0"
       inkscape:vp_z="744.09448 : 526.18109 : 1"
       inkscape:persp3d-origin="372.04724 : 350.78739 : 1"
       id="perspective10" />
    <inkscape:perspective
       sodipodi:type="inkscape:persp3d"
       inkscape:vp_x="0 : 0.5 : 1"
       inkscape:vp_y="0 : 1000 : 0"
       inkscape:vp_z="1 : 0.5 : 1"
       inkscape:persp3d-origin="0.5 : 0.33333333 : 1"
       id="perspective2891" />
    <inkscape:perspective
       sodipodi:type="inkscape:persp3d"
       inkscape:vp_x="0 : 0.5 : 1"
       inkscape:vp_y="0 : 1000 : 0"
       inkscape:vp_z="1 : 0.5 : 1"
       inkscape:persp3d-origin="0.5 : 0.33333333 : 1"
       id="perspective3011" />
    <inkscape:perspective
       sodipodi:type="inkscape:persp3d"
       inkscape:vp_x="0 : 0.5 : 1"
       inkscape:vp_y="0 : 1000 : 0"
       inkscape:vp_z="1 : 0.5 : 1"
       inkscape:persp3d-origin="0.5 : 0.33333333 : 1"
       id="perspective3110" />
    <inkscape:perspective
       sodipodi:type="inkscape:persp3d"
       inkscape:vp_x="0 : 0.5 : 1"
       inkscape:vp_y="0 : 1000 : 0"
       inkscape:vp_z="1 : 0.5 : 1"
       inkscape:persp3d-origin="0.5 : 0.33333333 : 1"
       id="perspective3357" />
    <inkscape:perspective
       sodipodi:type="inkscape:persp3d"
       inkscape:vp_x="0 : 0.5 : 1"
       inkscape:vp_y="0 : 1000 : 0"
       inkscape:vp_z="1 : 0.5 : 1"
       inkscape:persp3d-origin="0.5 : 0.33333333 : 1"
       id="perspective5122" />
    <marker
       style="overflow:visible"
       id="Arrow1Mend-0"
       refX="0"
       refY="0"
       orient="auto"
       inkscape:stockid="Arrow1Mend">
      <path
         transform="matrix(-0.4,0,0,-0.4,-4,0)"
         style="fill-rule:evenodd;stroke:#000000;stroke-width:1pt;marker-start:none"
         d="M 0,0 5,-5 -12.5,0 5,5 0,0 z"
         id="path4304-7" />
    </marker>
    <inkscape:perspective
       id="perspective5247"
       inkscape:persp3d-origin="0.5 : 0.33333333 : 1"
       inkscape:vp_z="1 : 0.5 : 1"
       inkscape:vp_y="0 : 1000 : 0"
       inkscape:vp_x="0 : 0.5 : 1"
       sodipodi:type="inkscape:persp3d" />
    <inkscape:perspective
       sodipodi:type="inkscape:persp3d"
       inkscape:vp_x="0 : 0.5 : 1"
       inkscape:vp_y="0 : 1000 : 0"
       inkscape:vp_z="1 : 0.5 : 1"
       inkscape:persp3d-origin="0.5 : 0.33333333 : 1"
       id="perspective5247-2" />
    <inkscape:perspective
       id="perspective5247-5"
       inkscape:persp3d-origin="0.5 : 0.33333333 : 1"
       inkscape:vp_z="1 : 0.5 : 1"
       inkscape:vp_y="0 : 1000 : 0"
       inkscape:vp_x="0 : 0.5 : 1"
       sodipodi:type="inkscape:persp3d" />
    <inkscape:perspective
       sodipodi:type="inkscape:persp3d"
       inkscape:vp_x="0 : 0.5 : 1"
       inkscape:vp_y="0 : 1000 : 0"
       inkscape:vp_z="1 : 0.5 : 1"
       inkscape:persp3d-origin="0.5 : 0.33333333 : 1"
       id="perspective5247-8" />
    <inkscape:perspective
       id="perspective6300"
       inkscape:persp3d-origin="0.5 : 0.33333333 : 1"
       inkscape:vp_z="1 : 0.5 : 1"
       inkscape:vp_y="0 : 1000 : 0"
       inkscape:vp_x="0 : 0.5 : 1"
       sodipodi:type="inkscape:persp3d" />
    <inkscape:perspective
       id="perspective6300-7"
       inkscape:persp3d-origin="0.5 : 0.33333333 : 1"
       inkscape:vp_z="1 : 0.5 : 1"
       inkscape:vp_y="0 : 1000 : 0"
       inkscape:vp_x="0 : 0.5 : 1"
       sodipodi:type="inkscape:persp3d" />
    <inkscape:perspective
       id="perspective6381"
       inkscape:persp3d-origin="0.5 : 0.33333333 : 1"
       inkscape:vp_z="1 : 0.5 : 1"
       inkscape:vp_y="0 : 1000 : 0"
       inkscape:vp_x="0 : 0.5 : 1"
       sodipodi:type="inkscape:persp3d" />
    <inkscape:perspective
       sodipodi:type="inkscape:persp3d"
       inkscape:vp_x="0 : 0.5 : 1"
       inkscape:vp_y="0 : 1000 : 0"
       inkscape:vp_z="1 : 0.5 : 1"
       inkscape:persp3d-origin="0.5 : 0.33333333 : 1"
       id="perspective6381-4" />
  </defs>
  <metadata
     id="metadata7">
    <rdf:RDF>
      <cc:Work
         rdf:about="">
        <dc:format>image/svg+xml</dc:format>
        <dc:type
           rdf:resource="http://purl.org/dc/dcmitype/StillImage" />
        <dc:title></dc:title>
      </cc:Work>
    </rdf:RDF>
  </metadata>
  <g
     inkscape:label="Layer 1"
     inkscape:groupmode="layer"
     id="layer1">
    <g
       id="g5163"
       style="fill:none;stroke:#000000;stroke-width:5.73236512999999981;stroke-linecap:butt;stroke-linejoin:miter;stroke-miterlimit:4;stroke-opacity:1;stroke-dasharray:none;marker-mid:none"
       transform="matrix(0.76419085,0,0,0.38764321,149.41341,291.49887)">
      <path
         sodipodi:nodetypes="ccsssc"
         id="path5175"
         d="M 269.77477,925.21813 399.03125,773.96875 c 17.66762,-21.05545 30.14555,-51.39403 37.28125,-74.09375 5.97995,-19.02312 0.66046,-33.49315 -12.5,-48.1875 -8.22034,-9.17845 -20.50717,-10.99194 -32.28125,-12.78125 -11.77408,-1.78931 -23.05358,-3.54655 -30.375,-11.46875"
         style="fill:none;stroke:#000000;stroke-width:3.67462467999999998;stroke-miterlimit:4;stroke-dasharray:none" />
      <path
         sodipodi:nodetypes="ccccsssssscc"
         id="path5165"
         d="m 280.19301,721.63159 131.52574,-154.47539 0.0625,-0.0625 0.0625,-0.0937 c 4.56379,-6.69766 6.80568,-16.22107 7.125,-25.84375 0.31932,-9.62268 -1.2957,-19.33473 -5,-26.46875 -5.38405,-10.36897 -15.76685,-19.69067 -27.5625,-26.96875 -11.79565,-7.27808 -25.00786,-12.49914 -36.34375,-14.375 -2.87017,-0.47496 -5.90109,-0.71594 -9,-0.78125 -21.69239,-0.45715 -47.97533,8.55245 -64.96875,19.21875 -12.4336,7.80422 -25.56247,19.63599 -36.75,32.96875 L 111.50648,679.90687"
         style="fill:none;stroke:#000000;stroke-width:3.67462467999999998;stroke-miterlimit:4;stroke-dasharray:none" />
      <path
         sodipodi:nodetypes="ccsssssssssc"
         d="m 219.31609,637.07137 c 0.0997,1.77697 0.20777,3.54765 0.31199,5.24573 0.22735,2.73792 0.51118,5.5409 0.8429,8.34145 0.33172,2.80054 0.71133,5.59864 1.1395,8.3915 0.42817,2.79286 0.90489,5.58049 1.43084,8.36007 0.52595,2.77959 1.10112,5.55114 1.72618,8.31187 0.62506,2.76072 1.30001,5.51061 2.02551,8.24688 0.7255,2.73627 1.50156,5.45892 2.32883,8.16514 0.82728,2.70623 1.70577,5.39604 2.63615,8.06663 0.93038,2.67059 1.91264,5.32196 2.94745,7.95133 1.03482,2.62937 2.12218,5.23672 3.26276,7.81927 0.28514,0.64564 0.57361,1.28973 0.86542,1.93222"
         style="stroke:#000000;stroke-width:3.67462467999999998;stroke-miterlimit:4;stroke-dasharray:none"
         id="path5203" />
      <path
         style="stroke:#000000;stroke-width:3.67462467999999998;stroke-miterlimit:4;stroke-dasharray:none"
         sodipodi:nodetypes="cc"
         id="path5219"
         d="m 224.6001,734.05981 50.21778,-59.84722" />
    </g>
    <g
       transform="translate(-7,1)"
       id="g5142">
      <g
         id="g2850"
         transform="matrix(0.61812306,0,0,0.61812306,400.68025,230.15925)"
         style="stroke-width:3.23560166;stroke-miterlimit:4;stroke-dasharray:none">
        <path
           id="path5407"
           d="m 112.75378,682.35244 94.24168,0"
           style="fill:none;stroke:#000000;stroke-width:3.23560166;stroke-linecap:round;stroke-linejoin:miter;stroke-miterlimit:4;stroke-opacity:1;stroke-dasharray:none;stroke-dashoffset:0;marker-end:url(#Arrow1Mend)"
           sodipodi:nodetypes="cc" />
        <path
           id="path6187"
           d="m 112.75378,682.35244 0,-75.93835"
           style="fill:none;stroke:#000000;stroke-width:3.23560166;stroke-linecap:round;stroke-linejoin:miter;stroke-miterlimit:4;stroke-opacity:1;stroke-dasharray:none;marker-end:url(#Arrow1Mend)"
           sodipodi:nodetypes="cc" />
      </g>
      <path
         id="path6189-8"
         d="m 470.82819,651.56942 39.24802,-23.89559"
         style="fill:none;stroke:#000000;stroke-width:2;stroke-linecap:round;stroke-linejoin:miter;stroke-miterlimit:4;stroke-opacity:1;stroke-dasharray:none;marker-end:url(#Arrow1Mend)"
         sodipodi:nodetypes="cc" />
    </g>
    <path
       style="fill:#666666;stroke:#000000;stroke-width:2;stroke-linecap:butt;stroke-linejoin:miter;stroke-miterlimit:4;stroke-opacity:1;stroke-dasharray:none;marker-mid:none"
       d="M 311.78125 534.75 C 295.61612 534.59423 275.61261 538.03819 262.875 542.09375 C 244.49145 547.94694 223.78657 559.93024 216.5625 570.3125 C 207.00348 584.05051 209.98127 604.8684 218.09375 618.84375 C 225.02772 630.78887 240.51857 647.50102 261.34375 654.09375 C 280.69721 660.22056 316.38327 662.98764 336.96875 658 C 359.92131 652.43884 375.68453 634.30902 383.3125 622 C 387.75938 614.82421 383.92431 609.572 374.03125 603.96875 C 362.25245 597.29744 338.17029 601.13966 326.1875 594.5625 C 319.90034 591.11157 321.12533 582.84151 326.1875 578.90625 C 333.10065 573.53205 357.65771 575.61553 364.78125 570.3125 C 371.30675 565.45468 371.65278 555.93576 366.3125 550.71875 C 358.4383 543.02633 335.32663 536.47757 318.46875 535.0625 C 316.34917 534.88458 314.09055 534.77225 311.78125 534.75 z M 308.34375 538.6875 C 316.17095 538.56039 323.88121 539.4243 331.03125 540.96875 C 343.52046 543.94265 357.27592 548.00626 361.40625 555.125 C 362.96378 559.2035 363.20455 563.88732 358.96875 567.5625 C 354.74323 570.44947 346.67183 570.22071 340.40625 571.15625 C 331.19153 571.91963 321.56147 574.11286 317.84375 578.75 C 312.79124 584.36878 312.29966 591.72763 320.0625 596.78125 C 328.49011 602.14439 343.04746 602.56794 355.40625 603.5625 C 369.43216 604.37922 379.62029 612.02928 377.03125 619 C 371.64291 627.93247 364.66676 636.95276 354.09375 644.75 C 346.60073 650.79136 334.5237 655.5469 320.34375 656.46875 C 298.43536 657.37002 274.2799 655.32475 257.46875 647.65625 C 234.01478 634.64186 221.89293 617.22652 219 599.84375 C 217.61257 588.91034 217.3282 577.38937 227.4375 567.4375 C 242.9785 552.10415 273.49484 539.62356 308.34375 538.6875 z "
       id="path6349" />
    <path
       style="fill:none;stroke:#000000;stroke-width:1px;stroke-linecap:round;stroke-linejoin:miter;stroke-opacity:1;marker-end:url(#Arrow1Mend-0)"
       d="m 209.96706,555.2257 c -1.37002,3.22617 -1.60981,6.65024 1.71006,8.14085 2.40353,1.07917 5.24958,2.0985 11.13538,4.11175"
       id="path5981"
       sodipodi:nodetypes="csc" />
    <text
       xml:space="preserve"
       style="font-size:12px;font-style:normal;font-variant:normal;font-weight:normal;font-stretch:normal;text-align:center;line-height:125%;letter-spacing:0px;word-spacing:0px;text-anchor:middle;fill:#000000;fill-opacity:1;stroke:none;font-family:Arial;-inkscape-font-specification:Arial"
       x="472.34732"
       y="604.76361"
       id="text4265"
       sodipodi:linespacing="125%"><tspan
         sodipodi:role="line"
         id="tspan4267"
         x="472.34732"
         y="604.76361">$\hat{x}$</tspan></text>
    <text
       xml:space="preserve"
       style="font-size:12px;font-style:normal;font-variant:normal;font-weight:normal;font-stretch:normal;text-align:center;line-height:125%;letter-spacing:0px;word-spacing:0px;text-anchor:middle;fill:#000000;fill-opacity:1;stroke:none;font-family:Arial;-inkscape-font-specification:Arial"
       x="502.08096"
       y="623.51624"
       id="text4265-0"
       sodipodi:linespacing="125%"><tspan
         sodipodi:role="line"
         id="tspan4267-9"
         x="502.08096"
         y="623.51624">$\hat{z}$</tspan></text>
    <text
       xml:space="preserve"
       style="font-size:12px;font-style:normal;font-variant:normal;font-weight:normal;font-stretch:normal;text-align:center;line-height:125%;letter-spacing:0px;word-spacing:0px;text-anchor:middle;fill:#000000;fill-opacity:1;stroke:none;font-family:Arial;-inkscape-font-specification:Arial"
       x="522.4657"
       y="644.02234"
       id="text4265-5"
       sodipodi:linespacing="125%"><tspan
         sodipodi:role="line"
         id="tspan4267-8"
         x="522.4657"
         y="644.02234">$\hat{y}$</tspan></text>
    <text
       xml:space="preserve"
       style="font-size:12px;font-style:normal;font-variant:normal;font-weight:normal;font-stretch:normal;text-align:center;line-height:125%;letter-spacing:0px;word-spacing:0px;text-anchor:middle;fill:#000000;fill-opacity:1;stroke:none;font-family:Arial;-inkscape-font-specification:Arial"
       x="278.63522"
       y="620.10199"
       id="text4265-3"
       sodipodi:linespacing="125%"><tspan
         sodipodi:role="line"
         id="tspan4267-97"
         x="278.63522"
         y="620.10199">$\epsilon_r$</tspan></text>
    <text
       xml:space="preserve"
       style="font-size:12px;font-style:normal;font-variant:normal;font-weight:normal;font-stretch:normal;text-align:center;line-height:125%;letter-spacing:0px;word-spacing:0px;text-anchor:middle;fill:#000000;fill-opacity:1;stroke:none;font-family:Arial;-inkscape-font-specification:Arial"
       x="278.63522"
       y="639.07257"
       id="text4265-3-6"
       sodipodi:linespacing="125%"><tspan
         sodipodi:role="line"
         id="tspan4267-97-3"
         x="278.63522"
         y="639.07257">$\mu_r$</tspan></text>
    <text
       xml:space="preserve"
       style="font-size:12px;font-style:normal;font-variant:normal;font-weight:normal;font-stretch:normal;text-align:center;line-height:125%;letter-spacing:0px;word-spacing:0px;text-anchor:middle;fill:#000000;fill-opacity:1;stroke:none;font-family:Arial;-inkscape-font-specification:Arial"
       x="272.97836"
       y="577.55432"
       id="text4265-3-61"
       sodipodi:linespacing="125%"><tspan
         sodipodi:role="line"
         id="tspan4267-97-5"
         x="272.97836"
         y="577.55432">$\Omega_v$</tspan></text>
    <text
       xml:space="preserve"
       style="font-size:12px;font-style:normal;font-variant:normal;font-weight:normal;font-stretch:normal;text-align:center;line-height:125%;letter-spacing:0px;word-spacing:0px;text-anchor:middle;fill:#000000;fill-opacity:1;stroke:none;font-family:Arial;-inkscape-font-specification:Arial"
       x="210.04587"
       y="551.39136"
       id="text4265-3-69"
       sodipodi:linespacing="125%"><tspan
         sodipodi:role="line"
         id="tspan4267-97-1"
         x="210.04587"
         y="551.39136">$\Gamma_e$</tspan></text>
  </g>
</svg>
